# xmcd
# Track frame offsets:
# 150
# 22380
# 54206
# 72236
# 96586
# 125271
# 149004
# 174942
#
# Disc length: 2579 seconds
# Revision: 0
# Processed by: cddbd v1.4PL0 Copyright (c) Steve Scherf et al.
# Submitted via: VisiTrax 2.9.5.181 - For more info visit www.synapsa.com
#
DISCID=740a1108
DTITLE=Lucky Peterson - Ridin'
DYEAR=1993
DGENRE=Blues
TTITLE0=Ridin'
TTITLE1=Don't Answer The Door
TTITLE2=Farther Up The Road
TTITLE3=Kinda Easy Like
TTITLE4=Baby What You Want Me To Do
TTITLE5=Green Onions
TTITLE6=Little Red Rooster
TTITLE7=You Don't Have To Go
EXTD=
EXTT0=
EXTT1=
EXTT2=
EXTT3=
EXTT4=
EXTT5=
EXTT6=
EXTT7=
PLAYORDER=
